<?xml version="1.0" standalone="no"?>
<!DOCTYPE svg PUBLIC "-//W3C//DTD SVG 20010904//EN"
 "http://www.w3.org/TR/2001/REC-SVG-20010904/DTD/svg10.dtd">
<svg version="1.0" xmlns="http://www.w3.org/2000/svg"
 width="194.000000pt" height="194.000000pt" viewBox="0 0 194.000000 194.000000"
 preserveAspectRatio="xMidYMid meet">
<metadata>
Created by potrace 1.14, written by Peter Selinger 2001-2017
</metadata>
<g transform="translate(0.000000,194.000000) scale(0.100000,-0.100000)"
fill="#000000" stroke="none">
<path d="M1296 1689 c2 -4 0 -10 -6 -14 -12 -8 -5 -53 15 -91 8 -15 13 -30 11
-31 -2 -2 -155 -4 -340 -5 -350 -2 -356 -3 -362 -44 -5 -34 22 -37 342 -38
207 0 314 -4 314 -11 0 -5 -13 -23 -29 -38 -40 -39 -46 -75 -14 -90 23 -10 29
-7 74 40 27 28 49 48 49 45 0 -4 4 -2 8 3 12 17 72 57 72 48 0 -4 5 0 11 10 6
9 14 15 18 13 4 -3 7 4 6 16 -1 11 -18 35 -38 52 -20 18 -37 37 -37 44 0 7 -4
12 -10 12 -5 0 -10 9 -10 19 0 11 -5 23 -10 26 -6 4 -8 10 -5 15 3 4 -3 11
-13 15 -24 11 -52 13 -46 4z"/>
<path d="M1118 1168 c-45 -26 -65 -66 -48 -97 6 -12 8 -21 5 -21 -3 0 0 -6 7
-14 7 -8 15 -12 17 -10 2 2 14 -16 26 -39 25 -47 40 -112 25 -102 -7 4 -7 -3
0 -19 7 -19 6 -26 -3 -26 -8 0 -7 -4 3 -10 8 -5 10 -10 5 -10 -6 0 -11 -8 -12
-17 -2 -26 -40 -138 -55 -165 -7 -13 -13 -25 -13 -28 -4 -22 -18 -50 -26 -50
-5 0 -8 -3 -7 -8 3 -10 -21 -51 -43 -76 -11 -11 -19 -24 -19 -30 0 -5 -3 -6
-7 -3 -3 4 -17 -5 -30 -19 -12 -14 -23 -21 -23 -17 0 4 -4 2 -9 -5 -8 -13 -87
-40 -108 -36 -7 1 -21 2 -31 3 -23 1 -83 51 -76 62 3 5 1 9 -5 9 -5 0 -8 9 -6
20 2 11 0 22 -4 25 -12 7 -3 123 14 185 4 14 7 31 7 38 1 6 5 12 9 12 4 0 6 9
4 20 -2 11 0 22 6 25 5 4 9 15 9 26 0 10 5 19 11 19 5 0 8 3 6 8 -3 4 0 18 6
32 5 14 11 30 13 35 1 6 12 36 23 68 11 32 15 55 10 51 -7 -4 -7 1 0 15 7 12
8 27 4 34 -4 6 -9 20 -10 31 -2 10 -19 34 -39 54 -33 33 -40 35 -104 37 -39 2
-70 -1 -70 -6 0 -5 -7 -9 -15 -9 -8 0 -15 -4 -15 -10 0 -5 -6 -10 -12 -10 -14
-1 -84 -90 -80 -102 1 -5 -2 -8 -8 -8 -5 0 -10 -4 -10 -9 0 -5 -8 -26 -17 -47
-9 -22 -17 -46 -18 -54 0 -8 -4 -20 -8 -27 -8 -13 27 -28 43 -18 5 3 12 21 16
40 3 19 9 35 13 35 4 0 8 6 8 13 0 43 101 176 123 162 6 -4 10 -2 10 2 0 5 11
10 24 11 37 3 57 -36 50 -95 -3 -26 -9 -50 -12 -53 -4 -3 -8 -12 -10 -20 -2
-8 -10 -27 -17 -43 -7 -15 -10 -25 -5 -22 5 3 3 -7 -5 -22 -8 -15 -15 -34 -15
-40 0 -7 -5 -13 -12 -13 -6 0 -9 -3 -5 -6 3 -3 -4 -31 -15 -62 -11 -32 -20
-64 -20 -72 -1 -8 -4 -19 -7 -25 -12 -17 -13 -185 -1 -185 5 0 10 -10 10 -22
0 -25 49 -88 68 -88 7 0 12 -4 12 -9 0 -8 30 -22 55 -25 6 -1 15 -4 20 -7 20
-11 98 -10 133 3 21 7 39 12 42 13 3 0 15 6 26 13 12 6 25 8 29 4 5 -4 5 -1 1
6 -4 7 -2 12 5 12 6 0 32 20 56 45 24 25 40 45 37 45 -4 0 0 8 8 18 30 33 100
189 97 216 0 5 3 12 8 15 11 7 34 82 40 131 3 19 8 37 12 40 4 3 7 18 6 33 -1
15 2 30 6 33 5 2 5 12 2 21 -5 12 -3 14 8 8 10 -6 11 -5 3 4 -7 8 -8 27 -4 52
4 22 3 39 -2 39 -5 0 -7 3 -4 8 6 11 -29 84 -37 75 -4 -3 -7 0 -7 7 0 7 -3 10
-7 7 -3 -4 -11 -3 -17 2 -7 6 -25 2 -48 -11z"/>
</g>
</svg>
