<?xml version="1.0" ?><svg width="53.87px" height="43.61px" viewBox="0 0 64 64" xmlns="http://www.w3.org/2000/svg"><g id="a"/><g id="b"/><g id="c"/><g id="d"/><g id="e"/><g id="f"/><g id="g"/><g id="h"/><g id="i"/><g id="j"/><g id="k"/><g id="l"/><g id="m"/><g id="n"/><g id="o"/><g id="p"/><g id="q"/><g id="r"/><g id="s"/><g id="t"/><g id="u"/><g id="v"/><g id="w"/><g id="x"/><g id="y"/><g id="a`"/><g id="aa"/><g id="ab"/><g id="ac"/><g id="ad"/><g id="ae"/><g id="af"/><g id="ag"/><g id="ah"/><g id="ai"/><g id="aj"/><g id="ak"/><g id="al"/><g id="am"><path d="M37.44,32.25h-10.88l-2.53,12.15h15.94l-2.53-12.15Z" fill="#fce87b" id="an"/><path d="M32,5c-.37,0-.74,.04-1.1,.12l-4.21,.92c-.68,.15-1.23,.66-1.43,1.32l-.82,2.73,7.38,2.51,7.74-2.51-.82-2.73c-.2-.67-.75-1.18-1.43-1.32l-4.21-.92c-.36-.08-.73-.12-1.1-.12Z" fill="#9dacb9" id="ao"/><path d="M38.37,51.96l1.15-3.53-8.27-2.87-6.76,2.87,1.14,3.53,5.4,3.29c.59,.36,1.34,.36,1.93,0l5.4-3.29Z" fill="#fce87b" id="ap"/><path d="M39.97,42.23h-15.94l-1.89,5.85h19.73l-1.89-5.85Z" fill="#9dacb9" id="aq"/><path d="M32.01,17.64l-2.76,9.42h0l-.78,2.67h7.09l-.78-2.67h0l-2.76-9.42Z" fill="#fce87b" id="ar"/><path d="M35.55,28.57h-7.09l-1.9,5.85h10.88l-1.89-5.85Z" fill="#9dacb9" id="as"/><path d="M30.43,26.15l-14.53,4.4-8.21,13.59h0c.07,.33,.22,.63,.45,.84l15.18,13.85c.37,.33,.95,.14,1.05-.35,2.08-10.77,4.05-21.55,6.05-32.33h0Z" fill="#e2eef2" id="at"/><path d="M30.42,26.16c-.57,3.08-1.14,6.16-1.71,9.24L7.69,44.15,26.91,27.43l3.5-1.27Z" fill="#d7e5eb" id="au"/><path d="M7.69,44.14L30.43,26.15l1.58-8.52-4.93-3.32-7.68,3.32c-3.85,8.53-7.74,17.04-11.62,25.56-.13,.28-.15,.63-.09,.95h0Z" fill="#f0f4f6" id="av"/><path d="M56.31,44.14l-11.73-14.02-11-3.97c2,10.78,3.96,21.57,6.04,32.33,.09,.49,.68,.68,1.05,.35l15.18-13.85c.23-.21,.39-.52,.45-.85Z" fill="#e2eef2" id="aw"/><path d="M33.58,26.15c.57,3.08,1.14,6.16,1.71,9.24l21.02,8.75-19.23-16.72-3.5-1.27Z" fill="#d7e5eb" id="ax"/><path d="M44.6,17.64l-8.02-2.36-4.57,2.36,1.58,8.51,22.73,17.99c.06-.32,.04-.66-.09-.94-3.91-8.5-7.77-17.03-11.62-25.56h0Z" fill="#f0f4f6" id="ay"/><path d="M39.56,10.1h-15.62c-.62,0-1.34,.46-1.59,1.03-.97,2.17-1.96,4.34-2.95,6.51h25.2c-.98-2.17-1.96-4.34-2.94-6.51-.26-.57-.97-1.03-1.59-1.03h-.5Z" fill="#8598ab" id="b`"/><path d="M57.13,42.78c-4.63-10.07-9.17-20.1-14.56-32.06-.38-.85-1.32-1.5-2.26-1.61l-.61-2.03c-.3-1.02-1.14-1.79-2.17-2.01l-4.21-.92c-.86-.19-1.77-.19-2.64,0l-4.21,.92c-1.04,.23-1.87,1-2.17,2.01l-.61,2.03c-.94,.1-1.88,.76-2.26,1.61-4.24,9.46-8.62,19.05-12.86,28.33l-1.71,3.73c-.21,.47-.27,1.02-.16,1.57,.11,.54,.38,1.03,.76,1.38l15.18,13.85c.44,.4,1.06,.53,1.61,.34,.56-.19,.98-.66,1.09-1.24l.99-5.11,4.17,2.54c.92,.56,2.05,.56,2.97,0l4.17-2.54,.99,5.11c.11,.58,.53,1.06,1.09,1.24,.17,.06,.34,.08,.51,.08,.4,0,.8-.15,1.1-.43l15.18-13.85c.78-.71,1.04-1.98,.6-2.94Zm-28.49-1.55l1.08-5.81h4.56l1.08,5.81h-6.72Zm7.09,2l.71,3.85h-8.89l.71-3.85h7.46Zm-2.53-13.66l.71,3.85h-3.82l.71-3.85h2.39Zm-2.02-2l.83-4.45,.82,4.45h-1.65Zm2.03-8.93h10.74c3.63,8.05,6.95,15.35,10.26,22.56l-19.71-15.6-1.29-6.96Zm-6.31-11.62l4.21-.92c.58-.13,1.2-.13,1.78,0l4.21,.92c.33,.07,.59,.31,.68,.63l.43,1.44h-12.44l.43-1.44c.1-.32,.36-.56,.68-.63Zm-3.64,4.52c.09-.21,.45-.44,.68-.44h16.12c.23,0,.59,.23,.68,.44,.8,1.77,1.54,3.41,2.3,5.1H20.95c.77-1.7,1.55-3.41,2.31-5.1Zm-3.21,7.1h10.75l-1.29,6.96-19.73,15.61,.61-1.34c3.18-6.96,6.43-14.1,9.66-21.24Zm3.47,39.02l-14.54-13.26,19.98-15.81-5.44,29.06Zm8.93-3.26c-.27,.17-.62,.17-.89,0l-4.81-2.93,.44-2.39h9.63l.44,2.39-4.81,2.93Zm8.04,3.26l-5.43-29.06,19.97,15.8-14.54,13.26Z"/></g><g id="ba"/><g id="bb"/><g id="bc"/><g id="bd"/><g id="be"/><g id="bf"/><g id="bg"/><g id="bh"/><g id="bi"/><g id="bj"/><g id="bk"/></svg>