<?xml version="1.0" standalone="no"?>
<!DOCTYPE svg PUBLIC "-//W3C//DTD SVG 20010904//EN"
 "http://www.w3.org/TR/2001/REC-SVG-20010904/DTD/svg10.dtd">
<svg version="1.0" xmlns="http://www.w3.org/2000/svg"
 width="1722.000000pt" height="1558.000000pt" viewBox="0 0 1722.000000 1558.000000"
 preserveAspectRatio="xMidYMid meet">

<g transform="translate(0.000000,1558.000000) scale(0.100000,-0.100000)"
fill="#000000" stroke="none">
<path d="M8128 15006 l-177 -354 60 24 c64 26 182 54 230 54 l29 0 0 -1159 0
-1158 -162 -7 c-926 -39 -1751 -253 -2543 -660 -1452 -745 -2538 -2038 -3019
-3598 -323 -1045 -351 -2206 -79 -3258 69 -267 214 -705 270 -814 8 -15 11
-32 6 -36 -10 -10 -822 -359 -843 -363 -20 -3 -49 106 -58 222 l-7 95 -250
-298 c-137 -164 -251 -302 -253 -307 -2 -5 8 -9 22 -9 32 0 642 -38 715 -44
l54 -5 -55 57 c-63 66 -97 111 -126 167 l-20 41 429 184 c236 101 430 181 432
179 2 -2 39 -78 82 -169 220 -463 482 -871 829 -1290 154 -186 549 -581 736
-736 972 -806 2050 -1259 3310 -1391 235 -24 905 -24 1140 0 1355 142 2546
677 3529 1587 l133 123 390 -391 391 -390 -64 -47 c-35 -26 -97 -64 -138 -83
l-74 -36 369 -123 c203 -68 372 -123 376 -123 3 0 -50 169 -119 376 l-126 377
-33 -73 c-33 -70 -118 -200 -132 -200 -4 0 -181 174 -394 387 l-386 386 120
130 c899 972 1448 2179 1583 3482 12 119 34 472 35 568 0 16 38 17 660 17
l660 0 0 -25 c0 -44 -29 -169 -54 -233 l-24 -61 354 177 c194 97 350 179 346
183 -4 3 -163 85 -353 181 l-346 176 33 -97 c18 -53 36 -124 40 -158 l7 -63
-662 0 c-623 0 -661 1 -661 18 -3 245 -42 676 -86 936 -289 1730 -1319 3247
-2824 4163 -861 523 -1812 812 -2847 865 l-233 12 0 1158 0 1158 31 0 c44 0
160 -28 230 -55 l60 -24 -177 347 c-97 191 -179 350 -183 354 -3 4 -86 -152
-183 -346z m142 -3198 c0 -473 2 -523 17 -540 16 -18 17 -18 40 4 l23 21 0
514 0 513 86 0 c158 0 369 -43 584 -118 107 -37 367 -163 476 -230 248 -152
549 -419 783 -694 l70 -82 -30 -34 c-39 -44 -49 -72 -49 -135 0 -151 146 -231
300 -163 17 7 63 -59 190 -274 153 -256 374 -731 475 -1020 56 -160 145 -430
160 -485 43 -155 115 -441 138 -545 56 -257 66 -312 122 -670 45 -287 94 -901
95 -1202 l0 -127 -35 -17 c-62 -29 -115 -109 -115 -174 0 -39 25 -95 57 -131
74 -82 203 -87 283 -10 26 25 43 53 52 84 l12 47 1128 0 c1068 0 1128 -1 1128
-17 -1 -100 -23 -455 -36 -566 -81 -747 -283 -1428 -618 -2082 -254 -496 -535
-900 -925 -1328 l-134 -148 -956 955 c-535 535 -964 956 -974 956 -9 0 -17 6
-17 14 0 8 -12 28 -26 45 -19 24 -34 31 -60 31 -31 0 -34 -3 -34 -28 0 -34 46
-82 78 -82 16 0 22 -6 22 -22 0 -17 256 -279 950 -973 523 -523 950 -953 950
-957 0 -9 -269 -251 -405 -364 -814 -673 -1852 -1133 -2900 -1283 -491 -71
-1060 -80 -1540 -25 -1935 221 -3634 1374 -4567 3099 -87 161 -213 424 -206
431 3 2 621 267 1374 589 753 322 1393 596 1422 610 47 23 53 29 50 53 -5 44
-49 41 -161 -12 -53 -26 -101 -46 -107 -46 -6 0 -29 -10 -52 -21 -54 -27
-2561 -1100 -2563 -1097 -7 10 -71 174 -109 278 -366 1012 -451 2110 -245
3170 187 962 621 1880 1243 2635 243 295 526 578 821 821 589 485 1283 860
2019 1088 127 40 333 96 350 96 3 0 1 -12 -4 -26 -13 -34 -14 -33 15 -44 60
-23 147 50 99 84 -15 12 -12 14 31 20 26 4 54 10 61 13 8 3 14 -1 14 -9 0 -8
10 -19 23 -25 33 -15 83 3 103 36 13 23 27 31 60 36 26 4 52 2 65 -5 26 -14
89 -4 104 16 12 17 116 36 128 24 11 -10 87 -1 104 12 10 8 204 23 393 31 41
2 96 4 123 5 l47 2 0 -522z m970 448 c1063 -168 2034 -611 2890 -1319 184
-153 580 -548 736 -737 519 -625 886 -1296 1124 -2060 156 -497 240 -1000 265
-1577 l6 -143 -1135 0 -1134 0 -22 35 c-22 36 -93 85 -123 85 -15 0 -17 14
-17 114 0 519 -76 1227 -191 1781 -188 906 -502 1718 -914 2368 l-85 135 10
46 c15 70 0 126 -49 179 -36 39 -73 57 -127 61 -44 4 -48 7 -142 117 -279 327
-603 599 -927 776 -90 49 -260 129 -335 156 -32 12 17 7 170 -17z"/>
<path d="M6713 12060 c-38 -23 -46 -65 -14 -75 27 -8 98 29 106 56 13 41 -39
52 -92 19z"/>
<path d="M6506 11938 c-32 -30 -43 -66 -22 -74 38 -15 101 24 111 69 7 26 5
27 -28 27 -23 0 -45 -8 -61 -22z"/>
<path d="M6315 11795 c-16 -15 -25 -36 -25 -55 0 -26 3 -30 28 -30 39 1 82 42
82 80 0 27 -3 30 -30 30 -19 0 -40 -9 -55 -25z"/>
<path d="M6156 11619 c-15 -18 -26 -43 -26 -60 0 -25 4 -29 29 -29 36 0 71 44
71 89 0 26 -4 31 -24 31 -15 0 -34 -12 -50 -31z"/>
<path d="M6057 11439 c-19 -11 -47 -60 -47 -81 0 -7 7 -22 15 -32 13 -17 16
-18 38 -3 30 20 51 69 43 102 -7 27 -20 31 -49 14z"/>
<path d="M5988 11209 c-10 -5 -18 -22 -18 -36 0 -16 -14 -39 -38 -64 -129
-129 -41 -339 143 -339 30 0 33 -6 145 -231 63 -127 123 -235 132 -240 26 -14
38 -11 49 14 8 19 -7 57 -104 257 l-115 235 26 30 c52 62 65 134 37 203 -29
68 -102 122 -165 122 -22 0 -30 5 -30 18 0 20 -18 42 -34 42 -6 0 -19 -5 -28
-11z m132 -144 c80 -42 77 -161 -6 -200 -40 -19 -56 -19 -99 -1 -84 35 -84
172 0 207 32 13 74 10 105 -6z"/>
<path d="M8287 11152 c-24 -26 -23 -104 1 -125 17 -16 20 -15 40 6 28 30 30
97 4 120 -23 21 -25 21 -45 -1z"/>
<path d="M8287 10912 c-25 -27 -23 -104 3 -127 19 -17 21 -17 40 0 27 24 28
105 2 128 -23 21 -25 21 -45 -1z"/>
<path d="M5340 10821 c-72 -22 -155 -94 -217 -187 -96 -144 -112 -352 -32
-408 29 -20 91 -21 128 -2 29 15 97 85 126 130 10 14 19 25 21 23 8 -7 -96
-343 -114 -366 -10 -14 -33 -32 -50 -40 -18 -8 -32 -18 -32 -23 0 -4 77 -8
171 -8 132 0 170 3 167 13 -3 6 -13 14 -24 16 -37 6 -56 33 -50 71 3 19 53
197 111 395 58 198 105 363 105 368 0 4 -34 7 -75 7 -41 0 -75 -4 -75 -9 0 -5
-5 -22 -11 -38 l-11 -28 -13 33 c-10 21 -26 38 -49 47 -39 16 -40 17 -76 6z
m94 -63 c44 -63 -21 -270 -121 -388 -37 -43 -85 -55 -97 -24 -29 75 46 326
122 407 32 34 75 36 96 5z"/>
<path d="M8287 10672 c-26 -28 -23 -108 4 -122 16 -9 25 -8 40 6 26 23 26 94
1 117 -23 21 -25 21 -45 -1z"/>
<path d="M5826 10610 c-41 -13 -83 -56 -102 -107 -21 -55 -13 -65 16 -18 26
43 66 65 116 65 28 0 44 -8 71 -35 34 -34 35 -37 31 -99 -5 -85 -44 -148 -171
-276 -66 -67 -94 -102 -85 -105 8 -3 85 -4 172 -3 l158 3 19 49 c22 58 18 68
-14 38 -21 -20 -34 -22 -137 -22 l-114 0 65 68 c118 120 170 198 184 275 9 48
-24 119 -68 146 -39 23 -102 33 -141 21z"/>
<path d="M9793 10554 c-112 -55 -232 -226 -255 -365 -16 -92 -4 -155 37 -196
42 -42 89 -44 151 -8 40 23 134 134 134 158 0 6 2 8 5 5 8 -7 -100 -363 -118
-392 -10 -14 -31 -29 -49 -34 -17 -4 -33 -13 -36 -20 -3 -9 40 -12 172 -12
150 0 176 2 176 15 0 8 -8 15 -18 15 -10 0 -28 7 -41 16 -21 15 -23 22 -18 63
5 35 185 673 212 749 4 10 -13 12 -72 10 l-76 -3 -12 -34 -11 -34 -14 32 c-14
34 -54 61 -93 61 -12 0 -46 -12 -74 -26z m117 -24 c11 -6 24 -27 31 -48 31
-105 -121 -409 -200 -400 -40 5 -49 44 -29 136 29 141 98 284 148 309 30 15
27 15 50 3z"/>
<path d="M8287 10432 c-25 -28 -23 -108 3 -122 14 -8 25 -7 40 2 29 18 25 104
-6 124 -18 13 -23 12 -37 -4z"/>
<path d="M10338 10334 c-38 -19 -68 -36 -68 -39 0 -2 17 -3 37 -2 l38 2 8 -70
c5 -38 7 -143 5 -231 -4 -173 -10 -194 -55 -194 -14 0 -21 -4 -18 -10 3 -6 50
-10 105 -10 55 0 102 4 105 10 3 6 -4 10 -18 10 -49 0 -52 13 -55 302 -2 147
-6 268 -10 268 -4 -1 -37 -17 -74 -36z"/>
<path d="M8287 10192 c-24 -27 -22 -94 3 -117 19 -17 21 -17 40 0 27 24 28 95
2 118 -23 21 -25 21 -45 -1z"/>
<path d="M6525 9970 c-9 -41 233 -525 267 -533 24 -7 38 7 38 38 0 11 -56 130
-123 265 -107 214 -125 246 -149 251 -23 6 -28 3 -33 -21z"/>
<path d="M8287 9952 c-24 -27 -22 -94 3 -117 19 -17 21 -17 40 0 27 24 28 95
2 118 -23 21 -25 21 -45 -1z"/>
<path d="M8287 9712 c-24 -27 -22 -94 3 -117 19 -17 21 -17 40 0 27 24 28 95
2 118 -23 21 -25 21 -45 -1z"/>
<path d="M8286 9471 c-23 -25 -19 -109 6 -125 46 -29 83 88 40 127 -23 21 -25
21 -46 -2z"/>
<path d="M8287 9232 c-24 -27 -22 -94 3 -117 19 -17 21 -17 40 0 27 24 28 95
2 118 -23 21 -25 21 -45 -1z"/>
<path d="M6952 9119 c-11 -28 -1 -51 137 -327 112 -223 146 -262 165 -187 5
19 -22 82 -119 275 -69 137 -129 250 -134 250 -5 0 -16 3 -25 6 -11 4 -19 -2
-24 -17z"/>
<path d="M8287 8992 c-26 -28 -23 -104 4 -120 18 -11 24 -11 40 4 26 23 26 95
1 117 -23 21 -25 21 -45 -1z"/>
<path d="M8287 8752 c-24 -27 -22 -94 3 -117 19 -17 21 -17 40 0 27 24 28 95
2 118 -23 21 -25 21 -45 -1z"/>
<path d="M8287 8512 c-24 -27 -22 -94 3 -117 19 -17 21 -17 40 0 27 24 28 95
2 118 -23 21 -25 21 -45 -1z"/>
<path d="M8287 8272 c-24 -27 -22 -94 3 -117 19 -17 21 -17 40 0 27 24 28 95
2 118 -23 21 -25 21 -45 -1z"/>
<path d="M7374 8255 c-5 -22 17 -75 111 -269 65 -132 123 -246 129 -252 6 -7
21 -15 33 -18 18 -6 24 -2 29 19 5 21 -18 77 -112 271 -65 135 -123 249 -129
253 -5 5 -20 12 -32 15 -18 6 -24 2 -29 -19z"/>
<path d="M8287 8032 c-24 -27 -22 -94 3 -117 19 -17 21 -17 40 0 27 24 28 95
2 118 -23 21 -25 21 -45 -1z"/>
<path d="M8287 7792 c-24 -27 -22 -94 3 -117 19 -17 21 -17 40 0 27 24 28 95
2 118 -23 21 -25 21 -45 -1z"/>
<path d="M8288 7559 c-27 -15 -25 -100 2 -124 19 -17 21 -17 40 0 27 24 28 95
2 118 -21 20 -21 20 -44 6z"/>
<path d="M7802 7395 c-11 -23 0 -49 116 -278 110 -217 131 -252 154 -258 22
-6 27 -3 33 18 4 19 -23 83 -115 271 -66 136 -128 253 -137 260 -25 18 -39 15
-51 -13z"/>
<path d="M8288 7316 c-26 -19 -24 -97 2 -121 19 -17 21 -17 40 0 27 24 28 95
2 118 -22 20 -22 20 -44 3z"/>
<path d="M8288 7076 c-26 -19 -24 -97 2 -121 19 -17 21 -17 40 0 27 24 28 95
2 118 -22 20 -22 20 -44 3z"/>
<path d="M8287 6842 c-25 -27 -23 -104 3 -127 19 -17 21 -17 40 0 29 26 27 95
-3 123 -23 22 -24 22 -40 4z"/>
<path d="M8287 6602 c-9 -10 -17 -24 -17 -30 0 -7 -9 -12 -19 -12 -31 0 -34
-42 -6 -101 l24 -53 -28 -12 c-35 -15 -48 -54 -23 -72 15 -12 28 -12 72 -1 11
3 38 -41 95 -153 77 -151 107 -190 136 -173 14 9 10 67 -6 95 -20 35 -19 37
15 32 28 -4 30 -2 30 30 0 47 -46 92 -88 86 -27 -4 -32 0 -51 39 -25 52 -26
66 -6 83 14 12 13 16 -6 37 -13 12 -31 23 -41 23 -24 0 -46 46 -30 62 22 22
15 92 -11 116 -23 22 -24 22 -40 4z"/>
<path d="M8525 6400 c-17 -19 -17 -21 0 -40 24 -27 105 -28 128 -2 16 17 15
20 -6 40 -31 29 -97 30 -122 2z"/>
<path d="M8765 6400 c-17 -19 -17 -21 0 -40 24 -27 105 -28 128 -2 16 17 15
20 -6 40 -31 29 -97 30 -122 2z"/>
<path d="M9005 6400 c-17 -19 -17 -21 0 -40 26 -29 105 -28 123 1 11 18 11 24
-4 40 -24 27 -95 26 -119 -1z"/>
<path d="M9245 6400 c-17 -19 -17 -21 0 -40 26 -29 110 -28 125 1 28 51 -83
85 -125 39z"/>
<path d="M9486 6398 c-14 -20 -14 -24 1 -40 23 -26 94 -24 118 2 17 19 17 21
0 40 -26 29 -98 28 -119 -2z"/>
<path d="M9725 6400 c-17 -19 -17 -21 0 -40 13 -14 31 -20 60 -20 29 0 47 6
60 20 17 19 17 21 0 40 -13 14 -31 20 -60 20 -29 0 -47 -6 -60 -20z"/>
<path d="M9965 6400 c-17 -19 -17 -21 0 -40 13 -14 31 -20 60 -20 29 0 47 6
60 20 17 19 17 21 0 40 -13 14 -31 20 -60 20 -29 0 -47 -6 -60 -20z"/>
<path d="M10205 6400 c-17 -19 -17 -21 0 -40 13 -14 31 -20 60 -20 29 0 47 6
60 20 17 19 17 21 0 40 -13 14 -31 20 -60 20 -29 0 -47 -6 -60 -20z"/>
<path d="M10445 6400 c-17 -19 -17 -21 0 -40 13 -14 31 -20 60 -20 29 0 47 6
60 20 17 19 17 21 0 40 -13 14 -31 20 -60 20 -29 0 -47 -6 -60 -20z"/>
<path d="M10686 6401 c-15 -16 -15 -22 -4 -40 18 -29 97 -30 123 -1 17 19 17
21 0 40 -24 27 -95 28 -119 1z"/>
<path d="M10926 6401 c-15 -16 -15 -22 -4 -40 18 -29 97 -30 123 -1 17 19 17
21 0 40 -24 27 -95 28 -119 1z"/>
<path d="M11162 6397 c-22 -23 -22 -24 -4 -40 27 -25 104 -23 127 3 17 19 17
21 0 40 -26 29 -95 27 -123 -3z"/>
<path d="M11402 6397 c-22 -23 -22 -24 -4 -40 27 -25 104 -23 127 3 17 19 17
21 0 40 -26 29 -95 27 -123 -3z"/>
<path d="M8035 6304 c-62 -33 -72 -70 -21 -79 65 -13 134 50 90 82 -22 16 -32
16 -69 -3z"/>
<path d="M7803 6205 c-18 -8 -33 -19 -33 -24 0 -5 -3 -16 -6 -24 -3 -10 4 -18
23 -24 39 -13 99 11 108 44 3 14 4 27 2 29 -12 12 -67 11 -94 -1z"/>
<path d="M7593 6115 c-40 -17 -65 -62 -42 -76 21 -13 44 -11 84 8 78 37 38
103 -42 68z"/>
<path d="M12283 6059 c-23 -11 -71 -52 -107 -89 -137 -146 -193 -357 -123
-461 60 -89 174 -50 274 96 19 28 32 41 29 30 -33 -125 -102 -346 -114 -367
-9 -15 -34 -35 -55 -43 -26 -10 -37 -19 -30 -26 14 -14 335 -7 340 7 2 7 -9
15 -24 19 -40 10 -53 23 -53 55 0 22 63 249 205 733 l14 48 -76 -3 -76 -3 -12
-35 -13 -35 -7 28 c-17 64 -94 85 -172 46z m130 -37 c41 -45 26 -147 -41 -282
-39 -79 -107 -160 -135 -160 -32 0 -50 44 -42 102 17 121 90 297 141 337 33
26 56 27 77 3z"/>
<path d="M8620 6042 c0 -34 55 -92 88 -92 18 0 22 6 22 33 0 41 -44 87 -83 87
-23 0 -27 -4 -27 -28z"/>
<path d="M7373 6023 c-26 -13 -61 -60 -51 -68 2 -1 13 -7 24 -13 32 -17 100
12 109 46 10 42 -31 60 -82 35z"/>
<path d="M7153 5924 c-28 -12 -53 -40 -53 -59 0 -3 11 -10 24 -15 36 -13 95 8
112 41 13 26 13 28 -18 38 -17 6 -31 11 -32 10 -1 0 -15 -7 -33 -15z"/>
<path d="M8790 5872 c0 -34 55 -92 88 -92 18 0 22 6 22 33 0 41 -44 87 -83 87
-23 0 -27 -4 -27 -28z"/>
<path d="M12825 5858 c-114 -63 -163 -258 -109 -429 65 -205 267 -196 329 14
19 65 19 199 0 264 -18 61 -65 127 -104 148 -35 17 -87 19 -116 3z m105 -40
c34 -37 45 -94 44 -243 0 -162 -12 -213 -55 -250 -53 -44 -97 -15 -125 83 -13
44 -15 85 -12 191 3 75 11 150 17 166 29 72 90 97 131 53z"/>
<path d="M6939 5833 c-20 -8 -41 -25 -48 -40 -6 -14 -10 -27 -9 -28 26 -21 50
-24 82 -9 28 14 65 60 54 69 -23 19 -47 21 -79 8z"/>
<path d="M6704 5731 c-69 -43 -36 -99 39 -67 23 9 41 25 47 42 12 32 12 32
-26 39 -19 4 -39 -1 -60 -14z"/>
<path d="M8960 5696 c0 -40 46 -86 86 -86 21 0 24 5 24 33 0 41 -44 87 -83 87
-24 0 -27 -4 -27 -34z"/>
<path d="M8652 5675 c-11 -23 0 -49 113 -274 109 -218 127 -250 153 -259 28
-10 30 -9 36 19 5 24 -17 75 -119 278 -132 265 -156 296 -183 236z"/>
<path d="M6480 5639 c-77 -31 -36 -96 45 -69 37 12 65 58 43 71 -17 11 -57 10
-88 -2z"/>
<path d="M6264 5546 c-51 -23 -60 -71 -15 -81 38 -8 89 18 102 52 5 14 8 27 6
29 -12 12 -67 12 -93 0z"/>
<path d="M9130 5526 c0 -40 46 -86 86 -86 21 0 24 5 24 33 0 41 -44 87 -83 87
-24 0 -27 -4 -27 -34z"/>
<path d="M6053 5454 c-54 -23 -69 -68 -27 -78 64 -16 142 49 98 81 -22 16 -30
15 -71 -3z"/>
<path d="M9300 5356 c0 -63 100 -117 108 -59 5 35 -44 93 -79 93 -26 0 -29 -3
-29 -34z"/>
<path d="M5824 5356 c-28 -12 -44 -33 -44 -56 0 -4 12 -12 28 -17 56 -20 138
43 96 74 -22 16 -40 16 -80 -1z"/>
<path d="M9460 5192 c0 -38 58 -95 91 -90 38 5 37 44 -2 84 -43 45 -89 48 -89
6z"/>
<path d="M9630 5023 c0 -39 46 -83 87 -83 28 0 33 4 33 23 0 32 -59 87 -93 87
-23 0 -27 -4 -27 -27z"/>
<path d="M9800 4856 c0 -40 46 -86 86 -86 31 0 34 3 34 28 0 39 -46 82 -88 82
-27 0 -32 -4 -32 -24z"/>
<path d="M9080 4830 c-5 -10 -10 -26 -10 -34 0 -21 239 -499 254 -508 22 -15
47 -8 57 16 10 21 -4 53 -117 274 -132 257 -160 296 -184 252z"/>
<path d="M9970 4683 c0 -39 46 -83 87 -83 30 0 33 3 33 28 0 39 -46 82 -88 82
-28 0 -32 -3 -32 -27z"/>
<path d="M10140 4513 c0 -39 46 -83 87 -83 30 0 33 3 33 28 0 39 -46 82 -88
82 -28 0 -32 -3 -32 -27z"/>
<path d="M10310 4342 c0 -40 48 -85 86 -80 39 4 43 36 9 77 -20 23 -35 31 -61
31 -31 0 -34 -3 -34 -28z"/>
<path d="M9505 3959 c-5 -16 26 -90 116 -275 101 -206 129 -255 149 -262 21
-8 27 -5 36 17 9 23 -3 53 -109 271 -65 135 -126 251 -135 258 -24 18 -50 15
-57 -9z"/>
<path d="M9928 3098 c-4 -24 234 -516 256 -530 20 -14 36 -8 47 15 9 21 -6 56
-115 274 -68 138 -132 253 -141 257 -30 11 -44 6 -47 -16z"/>
<path d="M10355 2242 c-4 -22 12 -66 80 -207 75 -156 85 -184 80 -216 -22
-129 108 -251 234 -219 124 31 189 167 132 278 -53 103 -188 137 -282 71 l-26
-18 -77 158 c-57 118 -83 161 -102 170 -33 15 -31 15 -39 -17z"/>
<path d="M9117 2179 c-61 -40 -137 -126 -176 -198 -85 -160 -79 -338 14 -377
67 -28 138 9 212 110 25 34 46 63 48 64 11 11 -105 -361 -118 -382 -9 -13 -32
-29 -52 -36 -68 -23 -35 -30 134 -30 160 0 220 10 154 26 -42 10 -53 23 -53
61 0 20 47 198 105 396 58 198 105 367 105 374 0 11 -16 13 -72 11 -71 -3 -71
-3 -82 -36 l-12 -34 -24 39 c-24 36 -29 38 -80 41 -48 2 -62 -1 -103 -29z
m155 -26 c42 -38 13 -187 -61 -317 -77 -133 -161 -156 -161 -43 0 49 44 197
81 269 51 101 97 131 141 91z"/>
<path d="M9685 2000 c-67 -14 -112 -61 -122 -127 l-5 -38 20 30 c31 48 58 67
105 72 39 5 48 1 80 -27 89 -78 48 -197 -134 -385 -49 -51 -89 -95 -89 -98 0
-4 75 -7 168 -7 l167 0 18 49 c22 64 22 65 -10 41 -22 -16 -50 -21 -135 -26
-63 -4 -108 -3 -108 2 1 5 41 54 91 109 137 152 174 244 130 325 -33 62 -105
95 -176 80z"/>
<path d="M8460 1910 l0 -50 170 0 170 0 0 50 0 50 -170 0 -170 0 0 -50z"/>
<path d="M7157 15033 c-12 -22 -48 -145 -44 -150 3 -3 23 13 45 36 l39 41 134
0 134 0 -90 -92 c-298 -306 -365 -377 -365 -387 0 -8 60 -11 212 -9 l213 3 27
84 c26 81 28 118 4 76 -6 -10 -23 -32 -38 -47 -26 -28 -27 -28 -164 -28 l-137
0 44 48 c24 26 122 129 219 230 96 100 177 187 178 192 4 12 -405 14 -411 3z"/>
<path d="M780 10875 l0 -675 45 0 45 0 0 675 0 675 -45 0 -45 0 0 -675z"/>
<path d="M990 10875 l0 -675 45 0 45 0 0 675 0 675 -45 0 -45 0 0 -675z"/>
<path d="M2120 10875 l0 -675 45 0 45 0 0 675 0 675 -45 0 -45 0 0 -675z"/>
<path d="M2322 10878 l3 -673 45 0 45 0 3 673 2 672 -50 0 -50 0 2 -672z"/>
<path d="M3502 11247 c-46 -24 -80 -46 -76 -49 3 -4 17 -3 30 2 31 12 53 3 65
-27 12 -33 12 -559 -1 -583 -6 -11 -26 -21 -50 -25 -81 -14 -36 -25 100 -25
133 0 178 10 108 24 -60 12 -58 -3 -58 377 0 326 -1 349 -17 348 -10 0 -55
-19 -101 -42z"/>
<path d="M1586 11035 c-174 -60 -308 -372 -205 -481 48 -51 127 -24 198 66 23
29 41 49 41 45 0 -4 -18 -68 -40 -143 -42 -144 -63 -183 -99 -192 -12 -3 -23
-9 -24 -15 -1 -6 52 -11 141 -13 122 -2 142 0 142 13 0 8 -8 15 -18 15 -26 0
-42 20 -42 54 0 24 152 568 177 631 4 12 -7 15 -60 15 -65 0 -65 0 -72 -30
l-7 -30 -21 32 c-27 39 -62 49 -111 33z m90 -50 c26 -40 12 -114 -41 -222 -47
-95 -84 -136 -119 -131 -60 9 -1 262 82 351 32 34 57 34 78 2z"/>
<path d="M2680 11000 c0 -20 7 -20 295 -20 288 0 295 0 295 20 0 20 -7 20
-295 20 -288 0 -295 0 -295 -20z"/>
<path d="M2680 10820 c0 -20 7 -20 295 -20 288 0 295 0 295 20 0 20 -7 20
-295 20 -288 0 -295 0 -295 -20z"/>
<path d="M15857 7783 c-13 -21 -73 -120 -133 -220 l-109 -182 -7 82 c-12 131
-28 259 -40 305 -12 49 -13 49 -120 25 -89 -20 -103 -40 -31 -45 41 -3 50 -7
61 -31 20 -42 31 -134 39 -319 6 -165 11 -196 31 -184 6 3 68 103 138 221 75
125 131 210 135 202 3 -6 14 -102 24 -212 9 -110 21 -204 27 -210 12 -12 69
50 170 184 175 232 223 367 146 410 -23 13 -29 13 -52 -2 -35 -23 -33 -56 4
-89 17 -14 30 -33 30 -41 0 -46 -202 -350 -219 -331 -5 5 -16 101 -25 214 -24
288 -25 293 -69 223z"/>
<path d="M2670 3059 c-107 -20 -120 -33 -43 -42 36 -4 53 -12 69 -33 27 -33
69 -193 59 -224 -9 -27 -119 -192 -140 -210 -13 -11 -22 -10 -53 7 -26 15 -43
18 -59 13 -45 -18 -37 -84 12 -96 62 -15 117 29 205 165 l54 84 27 -107 c36
-142 60 -167 127 -132 40 21 122 114 122 138 0 19 -27 5 -44 -22 -24 -42 -62
-66 -80 -51 -18 15 -79 275 -71 301 9 27 80 117 103 129 13 7 32 7 57 0 50
-14 85 1 85 35 0 34 -25 56 -65 56 -26 0 -45 -11 -89 -51 -31 -28 -66 -68 -78
-90 -12 -21 -25 -39 -28 -39 -4 0 -14 25 -23 56 -21 72 -56 124 -82 123 -11
-1 -40 -5 -65 -10z"/>
<path d="M14352 2048 c-89 -22 -104 -41 -32 -43 51 -1 75 -25 84 -83 4 -20 15
-135 26 -256 l20 -218 -46 -53 c-45 -53 -126 -125 -140 -125 -3 0 -17 11 -30
25 -22 24 -25 25 -53 11 -43 -22 -54 -62 -25 -90 58 -59 178 36 412 329 224
281 291 411 251 488 -15 29 -28 37 -59 37 -35 0 -50 -17 -50 -57 0 -28 6 -37
36 -55 29 -17 34 -25 29 -45 -15 -60 -231 -368 -239 -342 -2 8 -10 79 -16 159
-16 197 -27 276 -45 311 -18 33 -13 33 -123 7z"/>
</g>
</svg>
