<?xml version="1.0" standalone="no"?>
<!DOCTYPE svg PUBLIC "-//W3C//DTD SVG 20010904//EN"
 "http://www.w3.org/TR/2001/REC-SVG-20010904/DTD/svg10.dtd">
<svg version="1.0" xmlns="http://www.w3.org/2000/svg"
     width="50.0" height="50.0" viewBox="0 0 194.000000 194.000000"
 preserveAspectRatio="xMidYMid meet">

<g transform="translate(0.000000,194.000000) scale(0.100000,-0.100000)"
fill="#ffffff" stroke="none">
<path d="M1291 1672 c-8 -16 -2 -43 24 -104 7 -17 -13 -18 -332 -18 -250 0
-342 -3 -351 -12 -17 -17 -15 -55 4 -62 9 -3 154 -6 323 -6 169 0 311 -3 314
-6 4 -4 -9 -25 -29 -46 -38 -42 -42 -73 -12 -92 15 -9 27 -1 75 47 32 31 79
70 106 87 57 36 60 58 13 93 -18 14 -45 51 -59 81 -28 59 -57 74 -76 38z"/>
<path d="M568 1160 c-20 -11 -50 -37 -68 -57 -39 -48 -89 -148 -97 -196 -5
-32 -3 -37 14 -37 13 0 24 10 31 28 5 15 18 49 27 75 48 134 190 220 210 127
9 -40 1 -75 -45 -200 -95 -255 -110 -360 -65 -453 39 -82 148 -137 246 -124
72 10 165 63 210 120 80 100 162 310 194 495 20 120 15 178 -20 216 -31 34
-67 33 -104 -1 -45 -42 -49 -74 -13 -114 66 -76 80 -133 57 -236 -21 -95 -61
-194 -114 -281 -62 -103 -134 -152 -223 -152 -95 0 -132 48 -132 170 1 81 18
149 80 320 63 171 52 258 -37 302 -45 23 -105 22 -151 -2z"/>
</g>
</svg>
