<svg version="1.1" id="Layer_1" xmlns="http://www.w3.org/2000/svg" xmlns:xlink="http://www.w3.org/1999/xlink" x="0px" y="0px"
	 width="100%" viewBox="0 0 194 194" enable-background="new 0 0 194 194" xml:space="preserve">
<path fill="#020202" opacity="1.000000" stroke="none" 
	d="
M118.000000,195.000000 
	C78.691704,195.000000 39.883404,195.000000 1.037553,195.000000 
	C1.037553,130.400070 1.037553,65.800125 1.037553,1.100087 
	C65.558113,1.100087 130.116440,1.100087 194.837372,1.100087 
	C194.837372,65.666336 194.837372,130.333130 194.837372,195.000000 
	C169.467087,195.000000 143.983551,195.000000 118.000000,195.000000 
M108.976837,90.673660 
	C109.611412,91.188957 110.245995,91.704254 111.082558,92.767204 
	C111.519829,93.149635 111.957100,93.532074 112.415909,94.577370 
	C113.372208,96.027962 114.328499,97.478554 115.277023,99.624153 
	C115.459846,100.043915 115.642662,100.463676 115.600586,101.544739 
	C115.993279,102.819351 116.385971,104.093964 116.600266,105.782631 
	C116.539108,106.096741 116.601669,106.383896 116.317108,107.197205 
	C116.094368,109.836304 115.871635,112.475410 115.364746,115.727898 
	C115.344017,116.174026 115.323296,116.620148 114.850342,117.412437 
	C114.556175,118.610863 114.262009,119.809288 113.704666,121.450104 
	C113.689095,121.788788 113.673531,122.127464 113.085205,122.896523 
	C112.744911,124.271690 112.404617,125.646851 111.616821,127.527634 
	C109.211792,132.710754 106.806763,137.893860 104.014862,143.359863 
	C104.014862,143.359863 103.913116,143.828201 103.257042,143.967361 
	C102.535889,145.328812 101.814735,146.690262 101.011826,148.033325 
	C101.011826,148.033325 101.059105,148.102524 100.501366,148.278000 
	C100.107811,148.899551 99.714249,149.521103 99.121330,150.137039 
	C99.121330,150.137039 99.143784,150.335205 98.481926,150.347504 
	C97.427246,151.279861 96.372566,152.212219 95.125282,153.129333 
	C95.125282,153.129333 95.140442,153.321945 94.559334,153.344513 
	C94.057541,153.904800 93.555748,154.465073 92.498634,155.098663 
	C92.360397,155.224182 92.222168,155.349701 91.401085,155.508041 
	C89.623276,156.423996 87.845474,157.339966 85.165535,158.194672 
	C82.757774,158.217163 80.350021,158.239639 77.528534,157.875259 
	C76.980026,157.819748 76.431519,157.764236 75.428329,157.135178 
	C73.711388,155.457001 71.994453,153.778809 70.308159,151.320831 
	C69.848816,145.220261 69.389481,139.119705 69.189384,132.496765 
	C69.189720,132.112747 69.190056,131.728714 69.684494,130.927155 
	C69.863136,129.913589 70.041771,128.900024 70.622200,127.211990 
	C70.768341,126.179604 70.914490,125.147217 71.507652,123.994469 
	C71.646637,123.336281 71.785622,122.678101 72.244743,121.588264 
	C72.270638,121.236740 72.296524,120.885223 72.796021,120.144569 
	C72.929947,119.391785 73.063866,118.639000 73.684143,117.305397 
	C73.804710,116.566254 73.925270,115.827110 74.540405,114.725319 
	C74.773521,113.778786 75.006638,112.832253 75.655594,111.325630 
	C75.698410,110.866928 75.741226,110.408226 76.353584,109.548645 
	C77.698898,106.050529 79.475632,102.645866 80.259758,99.026176 
	C80.948425,95.847160 80.524887,92.427216 80.674683,88.412178 
	C80.517593,87.975113 80.360497,87.538048 80.376671,86.462952 
	C78.132919,82.042542 75.487923,78.100655 69.199074,77.350159 
	C68.439682,77.350029 67.680283,77.349899 66.537170,76.993378 
	C65.722420,77.113434 64.907677,77.233490 63.327572,77.232170 
	C62.585163,77.412659 61.842758,77.593147 60.488922,77.529106 
	C59.228382,78.301399 57.967842,79.073685 56.185661,79.942490 
	C55.778133,80.269569 55.370602,80.596657 54.316303,80.998932 
	C53.524784,81.985626 52.733265,82.972328 51.996700,84.000229 
	C51.996700,84.000229 51.959824,83.942375 51.355320,84.039085 
	C50.930763,84.699303 50.506207,85.359520 49.772449,86.215538 
	C49.772449,86.215538 49.769920,86.581505 49.157585,86.878181 
	C47.817924,89.262177 46.478264,91.646172 44.866009,94.361366 
	C44.866009,94.361366 44.888054,94.789742 44.290714,95.132233 
	C43.296001,97.745087 41.997345,100.293297 41.422661,102.995483 
	C41.087795,104.570053 41.543430,107.665527 42.279499,107.878532 
	C45.302212,108.753242 46.245483,106.596519 46.551037,103.295563 
	C46.594147,102.838211 46.637257,102.380867 47.239838,101.515862 
	C49.091076,97.329002 50.942314,93.142136 53.243378,88.616570 
	C53.528561,88.141815 53.813744,87.667053 54.700611,87.038940 
	C55.174595,86.390572 55.648579,85.742210 56.019199,85.019081 
	C56.019199,85.019081 56.093887,85.122505 56.816555,84.936508 
	C60.276882,83.960892 64.445312,81.299438 67.038376,82.388603 
	C71.371803,84.208755 69.145523,89.293579 68.870285,93.101494 
	C68.801750,94.049683 68.259438,94.961594 67.948067,95.894585 
	C65.253510,103.968307 62.561981,112.043037 59.511871,120.716148 
	C59.470303,121.174355 59.428734,121.632568 58.891743,122.376381 
	C58.607613,123.580742 58.323483,124.785103 57.785717,126.510262 
	C57.793369,126.891670 57.801018,127.273071 57.314800,128.069031 
	C57.188606,129.084839 57.062412,130.100632 56.490654,131.863556 
	C56.417721,133.596054 56.344791,135.328568 55.941898,137.542969 
	C56.057365,138.670151 56.172829,139.797333 56.185989,141.767044 
	C56.405899,143.144287 56.625813,144.521545 56.525696,146.422958 
	C56.941116,147.084976 57.356537,147.746994 57.705223,148.973724 
	C57.837734,149.323181 57.970245,149.672653 57.876141,150.501144 
	C59.945950,152.865494 62.015759,155.229858 64.312508,158.011063 
	C64.312508,158.011063 64.774742,158.118713 64.999931,158.702576 
	C66.652153,159.407562 68.304382,160.112564 70.390938,161.194855 
	C70.767105,161.219513 71.143265,161.244186 72.062042,161.748108 
	C75.350990,162.075745 78.639938,162.403366 82.614807,162.839127 
	C83.045364,162.691605 83.475929,162.544067 84.609146,162.709274 
	C86.797615,161.836578 88.986084,160.963882 91.806221,160.048294 
	C92.174332,159.851547 92.542442,159.654800 93.581146,159.490662 
	C95.379250,158.324783 97.177361,157.158905 99.508774,155.690369 
	C100.348213,154.812241 101.187660,153.934113 102.619514,152.903351 
	C103.229843,151.899719 103.840164,150.896088 105.073021,149.557556 
	C106.401741,147.410187 107.730469,145.262817 109.688370,142.880859 
	C112.461433,135.885864 115.234489,128.890854 118.251251,121.115334 
	C118.484474,120.374367 118.717697,119.633392 119.455292,118.496613 
	C120.143486,115.965866 120.831680,113.435127 121.778496,110.287804 
	C121.792023,109.845833 121.805542,109.403870 122.217476,108.455383 
	C122.525856,106.624626 122.834236,104.793861 123.397469,102.410606 
	C123.405411,101.807831 123.413353,101.205063 123.894943,100.006500 
	C124.322922,97.265305 125.064888,94.529121 125.108696,91.781799 
	C125.183014,87.121925 125.515686,82.228943 121.004364,79.003044 
	C121.004364,79.003044 121.043823,78.968201 120.925156,78.383568 
	C120.243271,78.150307 119.561394,77.917046 118.143784,77.308434 
	C116.796677,77.411209 115.449577,77.513985 113.532387,77.410278 
	C112.968361,77.911140 112.404343,78.412003 111.381210,78.982399 
	C111.381210,78.982399 111.074783,79.331268 110.511192,79.348175 
	C110.121323,79.925385 109.731453,80.502594 108.996635,81.418533 
	C108.996635,81.418533 108.946175,81.899345 108.344719,82.156685 
	C108.082542,83.139526 107.820366,84.122368 107.327148,85.792152 
	C107.438499,86.491852 107.549858,87.191551 107.468063,88.447784 
	C107.967407,88.980644 108.466759,89.513496 109.002708,90.003990 
	C109.002708,90.003990 108.954689,90.031288 108.976837,90.673660 
M138.291443,32.898884 
	C137.796265,31.665762 137.227859,30.456228 136.821457,29.194510 
	C136.019699,26.705402 134.470367,24.463322 131.892349,25.964048 
	C130.520660,26.762545 129.653595,29.781467 129.873489,31.642820 
	C130.202286,34.425968 131.690216,37.072178 132.807983,40.110737 
	C119.363525,40.110737 106.388191,40.088383 93.412979,40.118504 
	C84.592407,40.138981 75.764076,40.058846 66.959084,40.460049 
	C65.434669,40.529510 64.009476,42.776596 62.538452,44.017845 
	C63.899372,45.366730 65.088814,47.000854 66.684097,47.959881 
	C67.676270,48.556347 69.282692,48.155815 70.613571,48.160393 
	C88.090553,48.220428 105.567596,48.265991 123.044525,48.338329 
	C124.733894,48.345322 126.422615,48.506542 128.882614,48.637081 
	C126.281151,51.856518 123.941483,54.072418 122.543396,56.775352 
	C121.867180,58.082684 122.959358,60.304722 123.250870,62.112614 
	C124.984436,61.830517 127.145668,62.109337 128.377960,61.169781 
	C133.883255,56.972340 139.047562,52.330956 144.486526,48.042030 
	C148.033432,45.245117 148.186646,43.722839 144.938187,40.514942 
	C142.712875,38.317394 140.713486,35.891060 138.291443,32.898884 
z"/>
<path fill="#F4F4F4" opacity="1.000000" stroke="none" 
	d="
M59.387161,122.090775 
	C59.428734,121.632568 59.470303,121.174355 59.995819,120.299011 
	C61.685211,116.704147 62.961960,113.551308 64.081245,110.343521 
	C66.406761,103.678741 68.958527,97.068779 70.801682,90.269417 
	C71.806763,86.561684 71.347061,82.469078 67.252296,80.337280 
	C64.281715,78.790749 58.346313,81.512085 56.093887,85.122505 
	C56.093887,85.122505 56.019199,85.019081 55.721497,85.054123 
	C54.982166,85.790207 54.540543,86.491249 54.098923,87.192291 
	C53.813744,87.667053 53.528561,88.141815 52.678810,88.827179 
	C50.302952,93.333038 48.491657,97.628273 46.680367,101.923515 
	C46.637257,102.380867 46.594147,102.838211 46.086021,103.712158 
	C45.149879,105.459602 44.678761,106.790443 44.207642,108.121284 
	C43.425713,107.480621 42.643784,106.839958 41.861858,106.199295 
	C42.870590,102.396111 43.879322,98.592926 44.888054,94.789742 
	C44.888054,94.789742 44.866009,94.361366 45.341881,94.139824 
	C47.135143,91.472687 48.452530,89.027092 49.769920,86.581505 
	C49.769920,86.581505 49.772449,86.215538 50.254028,86.098587 
	C51.143677,85.301880 51.551750,84.622131 51.959824,83.942375 
	C51.959824,83.942375 51.996700,84.000229 52.317047,83.986923 
	C53.412621,82.956993 54.187847,81.940361 54.963074,80.923737 
	C55.370602,80.596657 55.778133,80.269569 56.774940,79.960121 
	C58.609596,79.243042 59.854973,78.508339 61.100349,77.773636 
	C61.842758,77.593147 62.585163,77.412659 63.882156,77.509644 
	C65.264793,77.641342 66.092842,77.495552 66.920891,77.349762 
	C67.680283,77.349899 68.439682,77.350029 69.656647,77.805130 
	C73.477287,81.207062 76.840340,84.154022 80.203400,87.100983 
	C80.360497,87.538048 80.517593,87.975113 80.406342,89.076485 
	C79.420456,93.569321 78.771652,97.412445 77.963112,101.221664 
	C77.340904,104.153053 76.517807,107.041809 75.784042,109.949524 
	C75.741226,110.408226 75.698410,110.866928 75.152344,111.725052 
	C74.448006,113.112312 74.246925,114.100136 74.045837,115.087967 
	C73.925270,115.827110 73.804710,116.566254 73.140396,117.717972 
	C72.505234,118.931595 72.413826,119.732643 72.322411,120.533699 
	C72.296524,120.885223 72.270638,121.236740 71.799187,121.952995 
	C71.255959,122.916763 71.158295,123.515793 71.060623,124.114830 
	C70.914490,125.147217 70.768341,126.179604 70.112358,127.684196 
	C69.465141,129.219162 69.327766,130.281937 69.190399,131.344696 
	C69.190056,131.728714 69.189720,132.112747 68.756912,132.992981 
	C66.387848,139.964554 65.390099,146.341385 70.277512,152.100632 
	C71.994453,153.778809 73.711388,155.457001 75.695480,157.668121 
	C76.622505,158.221420 77.282387,158.241776 77.942261,158.262146 
	C80.350021,158.239639 82.757774,158.217163 85.836868,158.452927 
	C88.366783,157.632538 90.225365,156.553879 92.083939,155.475220 
	C92.222168,155.349701 92.360397,155.224182 93.086807,155.089142 
	C94.163467,154.493729 94.651955,153.907837 95.140442,153.321945 
	C95.140442,153.321945 95.125282,153.129333 95.544373,153.121704 
	C97.023567,152.187775 98.083672,151.261490 99.143784,150.335205 
	C99.143784,150.335205 99.121330,150.137039 99.527649,150.108368 
	C100.309013,149.420639 100.684059,148.761581 101.059113,148.102524 
	C101.059105,148.102524 101.011826,148.033325 101.397774,148.003082 
	C102.493523,146.591293 103.203316,145.209747 103.913116,143.828201 
	C103.913116,143.828201 104.014862,143.359863 104.497818,143.200012 
	C105.611931,142.338943 106.243080,141.637726 107.239799,140.954895 
	C108.093254,140.985535 108.581131,140.997787 109.019897,141.361130 
	C109.000244,142.179962 109.029716,142.647705 109.059189,143.115448 
	C107.730469,145.262817 106.401741,147.410187 104.450348,149.773697 
	C103.227478,151.011887 102.627289,152.033936 102.027100,153.055984 
	C101.187660,153.934113 100.348213,154.812241 98.888214,155.786163 
	C96.481956,157.073975 94.696251,158.266006 92.910545,159.458038 
	C92.542442,159.654800 92.174332,159.851547 91.109131,160.019012 
	C88.243523,160.792007 86.075005,161.594269 83.906487,162.396545 
	C83.475929,162.544067 83.045364,162.691605 81.989136,162.524612 
	C78.082123,161.896347 74.800774,161.582596 71.519432,161.268845 
	C71.143265,161.244186 70.767105,161.219513 70.060478,160.685196 
	C68.078262,159.489929 66.426498,158.804321 64.774742,158.118713 
	C64.774742,158.118713 64.312508,158.011063 64.180664,157.475906 
	C62.066803,154.634537 60.084778,152.328323 58.102753,150.022110 
	C57.970245,149.672653 57.837734,149.323181 57.849075,148.400604 
	C57.610523,147.184586 57.228123,146.541687 56.845722,145.898788 
	C56.625813,144.521545 56.405899,143.144287 56.466255,141.136108 
	C56.588303,139.357132 56.430077,138.209091 56.271858,137.061066 
	C56.344791,135.328568 56.417721,133.596054 57.007568,131.338806 
	C57.619209,129.760849 57.713940,128.707672 57.808666,127.654480 
	C57.801018,127.273071 57.793369,126.891670 58.174248,126.103989 
	C58.837574,124.495407 59.112366,123.293091 59.387161,122.090775 
z"/>
<path fill="#EFEFEF" opacity="1.000000" stroke="none" 
	d="
M138.452271,33.232941 
	C140.713486,35.891060 142.712875,38.317394 144.938187,40.514942 
	C148.186646,43.722839 148.033432,45.245117 144.486526,48.042030 
	C139.047562,52.330956 133.883255,56.972340 128.377960,61.169781 
	C127.145668,62.109337 124.984436,61.830517 123.250870,62.112610 
	C122.959358,60.304722 121.867180,58.082684 122.543396,56.775352 
	C123.941483,54.072418 126.281151,51.856518 128.882614,48.637081 
	C126.422615,48.506542 124.733894,48.345322 123.044525,48.338329 
	C105.567596,48.265991 88.090553,48.220428 70.613571,48.160393 
	C69.282692,48.155815 67.676270,48.556347 66.684097,47.959881 
	C65.088814,47.000854 63.899372,45.366730 62.538452,44.017845 
	C64.009476,42.776596 65.434669,40.529510 66.959084,40.460049 
	C75.764076,40.058846 84.592407,40.138981 93.412979,40.118504 
	C106.388191,40.088383 119.363525,40.110737 132.807983,40.110737 
	C131.690216,37.072178 130.202286,34.425968 129.873489,31.642820 
	C129.653595,29.781467 130.520660,26.762545 131.892349,25.964048 
	C134.470367,24.463322 136.019699,26.705402 136.821457,29.194510 
	C137.227859,30.456228 137.796265,31.665762 138.452271,33.232941 
z"/>
<path fill="#F0F0F0" opacity="1.000000" stroke="none" 
	d="
M109.069016,141.010040 
	C108.581131,140.997787 108.093254,140.985535 107.418297,140.643951 
	C109.128204,135.868591 111.025192,131.422562 113.019333,126.597824 
	C113.296982,124.968132 113.477470,123.717140 113.657959,122.466148 
	C113.673531,122.127464 113.689095,121.788788 114.129944,121.106972 
	C114.804344,119.531319 115.053452,118.298798 115.302567,117.066277 
	C115.323296,116.620148 115.344017,116.174026 115.832901,115.236588 
	C116.463356,112.044876 116.625648,109.344490 116.787949,106.644096 
	C116.601669,106.383896 116.539108,106.096741 116.834412,105.232117 
	C116.654205,103.415550 116.239845,102.149490 115.825485,100.883438 
	C115.642662,100.463676 115.459846,100.043915 115.489136,99.072815 
	C114.598953,96.985832 113.496658,95.450172 112.394371,93.914513 
	C111.957100,93.532074 111.519829,93.149635 111.009186,92.149338 
	C110.275436,91.031418 109.615067,90.531349 108.954689,90.031288 
	C108.954689,90.031288 109.002708,90.003990 109.027908,89.740395 
	C108.589142,88.948280 108.125175,88.419762 107.661209,87.891251 
	C107.549858,87.191551 107.438499,86.491852 107.745239,85.338898 
	C108.424278,83.890213 108.685226,82.894775 108.946175,81.899345 
	C108.946175,81.899345 108.996635,81.418533 109.455101,81.249710 
	C110.300636,80.497681 110.687706,79.914474 111.074783,79.331268 
	C111.074783,79.331268 111.381210,78.982399 111.901016,79.007111 
	C112.981369,78.560135 113.541924,78.088448 114.102470,77.616753 
	C115.449577,77.513985 116.796677,77.411209 118.598541,77.766220 
	C119.716805,78.472069 120.380318,78.720131 121.043823,78.968201 
	C121.043823,78.968201 121.004364,79.003044 121.025803,79.360947 
	C121.742218,81.687157 122.892624,83.621544 123.042229,85.630470 
	C123.412529,90.602905 123.324913,95.609451 123.421295,100.602287 
	C123.413353,101.205063 123.405411,101.807831 122.977280,102.872597 
	C122.311089,105.210358 122.065086,107.086128 121.819077,108.961899 
	C121.805542,109.403870 121.792023,109.845833 121.316101,110.702835 
	C120.219452,113.709381 119.585182,116.300903 118.950912,118.892418 
	C118.717697,119.633392 118.484474,120.374367 117.821991,121.619385 
	C114.618156,128.418976 111.843590,134.714508 109.069016,141.010040 
z"/>
<path fill="#CECECE" opacity="1.000000" stroke="none" 
	d="
M56.455223,85.029510 
	C58.346313,81.512085 64.281715,78.790749 67.252296,80.337280 
	C71.347061,82.469078 71.806763,86.561684 70.801682,90.269417 
	C68.958527,97.068779 66.406761,103.678741 64.081245,110.343521 
	C62.961960,113.551308 61.685211,116.704147 60.174660,119.999664 
	C62.561981,112.043037 65.253510,103.968307 67.948067,95.894585 
	C68.259438,94.961594 68.801750,94.049683 68.870285,93.101494 
	C69.145523,89.293579 71.371803,84.208755 67.038376,82.388603 
	C64.445312,81.299438 60.276882,83.960892 56.455223,85.029510 
z"/>
<path fill="#CECECE" opacity="1.000000" stroke="none" 
	d="
M76.068810,109.749084 
	C76.517807,107.041809 77.340904,104.153053 77.963112,101.221664 
	C78.771652,97.412445 79.420456,93.569321 80.365295,89.427231 
	C80.524887,92.427216 80.948425,95.847160 80.259758,99.026176 
	C79.475632,102.645866 77.698898,106.050529 76.068810,109.749084 
z"/>
<path fill="#CECECE" opacity="1.000000" stroke="none" 
	d="
M109.019897,141.361130 
	C111.843590,134.714508 114.618156,128.418976 117.700134,122.009651 
	C115.234489,128.890854 112.461433,135.885864 109.373779,142.998154 
	C109.029716,142.647705 109.000244,142.179962 109.019897,141.361130 
z"/>
<path fill="#C5C5C5" opacity="1.000000" stroke="none" 
	d="
M123.658119,100.304398 
	C123.324913,95.609451 123.412529,90.602905 123.042229,85.630470 
	C122.892624,83.621544 121.742218,81.687157 121.038345,79.338394 
	C125.515686,82.228943 125.183014,87.121925 125.108696,91.781799 
	C125.064888,94.529121 124.322922,97.265305 123.658119,100.304398 
z"/>
<path fill="#CECECE" opacity="1.000000" stroke="none" 
	d="
M44.589386,94.960983 
	C43.879322,98.592926 42.870590,102.396111 41.861858,106.199295 
	C42.643784,106.839958 43.425713,107.480621 44.207642,108.121284 
	C44.678761,106.790443 45.149879,105.459602 45.901978,104.008163 
	C46.245483,106.596519 45.302212,108.753242 42.279499,107.878532 
	C41.543430,107.665527 41.087795,104.570053 41.422661,102.995483 
	C41.997345,100.293297 43.296001,97.745087 44.589386,94.960983 
z"/>
<path fill="#CECECE" opacity="1.000000" stroke="none" 
	d="
M70.292831,151.710724 
	C65.390099,146.341385 66.387848,139.964554 68.627289,133.254166 
	C69.389481,139.119705 69.848816,145.220261 70.292831,151.710724 
z"/>
<path fill="#CFCFCF" opacity="1.000000" stroke="none" 
	d="
M112.922180,126.976532 
	C111.025192,131.422562 109.128204,135.868591 107.052727,140.625565 
	C106.243080,141.637726 105.611931,142.338943 104.691254,143.058563 
	C106.806763,137.893860 109.211792,132.710754 112.055328,127.268929 
	C112.493835,127.010223 112.922180,126.976532 112.922180,126.976532 
z"/>
<path fill="#CECECE" opacity="1.000000" stroke="none" 
	d="
M80.290039,86.781967 
	C76.840340,84.154022 73.477287,81.207062 70.004715,77.967194 
	C75.487923,78.100655 78.132919,82.042542 80.290039,86.781967 
z"/>
<path fill="#CECECE" opacity="1.000000" stroke="none" 
	d="
M46.960098,101.719688 
	C48.491657,97.628273 50.302952,93.333038 52.453899,88.996536 
	C50.942314,93.142136 49.091076,97.329002 46.960098,101.719688 
z"/>
<path fill="#CECECE" opacity="1.000000" stroke="none" 
	d="
M57.989449,150.261627 
	C60.084778,152.328323 62.066803,154.634537 64.067200,157.267487 
	C62.015759,155.229858 59.945950,152.865494 57.989449,150.261627 
z"/>
<path fill="#CECECE" opacity="1.000000" stroke="none" 
	d="
M71.790741,161.508484 
	C74.800774,161.582596 78.082123,161.896347 81.646179,162.470551 
	C78.639938,162.403366 75.350990,162.075745 71.790741,161.508484 
z"/>
<path fill="#CECECE" opacity="1.000000" stroke="none" 
	d="
M49.463753,86.729843 
	C48.452530,89.027092 47.135143,91.472687 45.478180,93.974228 
	C46.478264,91.646172 47.817924,89.262177 49.463753,86.729843 
z"/>
<path fill="#C5C5C5" opacity="1.000000" stroke="none" 
	d="
M119.203102,118.694519 
	C119.585182,116.300903 120.219452,113.709381 121.186798,111.011124 
	C120.831680,113.435127 120.143486,115.965866 119.203102,118.694519 
z"/>
<path fill="#C5C5C5" opacity="1.000000" stroke="none" 
	d="
M116.552528,106.920654 
	C116.625648,109.344490 116.463356,112.044876 115.974976,114.929886 
	C115.871635,112.475410 116.094368,109.836304 116.552528,106.920654 
z"/>
<path fill="#CECECE" opacity="1.000000" stroke="none" 
	d="
M91.742508,155.491638 
	C90.225365,156.553879 88.366783,157.632538 86.287933,158.483551 
	C87.845474,157.339966 89.623276,156.423996 91.742508,155.491638 
z"/>
<path fill="#CECECE" opacity="1.000000" stroke="none" 
	d="
M84.257812,162.552902 
	C86.075005,161.594269 88.243523,160.792007 90.793297,160.040466 
	C88.986084,160.963882 86.797615,161.836578 84.257812,162.552902 
z"/>
<path fill="#C5C5C5" opacity="1.000000" stroke="none" 
	d="
M122.018280,108.708641 
	C122.065086,107.086128 122.311089,105.210358 122.849854,103.148849 
	C122.834236,104.793861 122.525856,106.624626 122.018280,108.708641 
z"/>
<path fill="#CECECE" opacity="1.000000" stroke="none" 
	d="
M93.245850,159.474350 
	C94.696251,158.266006 96.481956,157.073975 98.621567,155.937500 
	C97.177361,157.158905 95.379250,158.324783 93.245850,159.474350 
z"/>
<path fill="#C5C5C5" opacity="1.000000" stroke="none" 
	d="
M112.405136,94.245941 
	C113.496658,95.450172 114.598953,96.985832 115.493027,98.725311 
	C114.328499,97.478554 113.372208,96.027962 112.405136,94.245941 
z"/>
<path fill="#CECECE" opacity="1.000000" stroke="none" 
	d="
M64.887337,158.410645 
	C66.426498,158.804321 68.078262,159.489929 69.843307,160.496552 
	C68.304382,160.112564 66.652153,159.407562 64.887337,158.410645 
z"/>
<path fill="#CECECE" opacity="1.000000" stroke="none" 
	d="
M60.794636,77.651367 
	C59.854973,78.508339 58.609596,79.243042 57.035759,79.911865 
	C57.967842,79.073685 59.228382,78.301399 60.794636,77.651367 
z"/>
<path fill="#C5C5C5" opacity="1.000000" stroke="none" 
	d="
M115.076447,117.239357 
	C115.053452,118.298798 114.804344,119.531319 114.261536,120.885773 
	C114.262009,119.809288 114.556175,118.610863 115.076447,117.239357 
z"/>
<path fill="#CECECE" opacity="1.000000" stroke="none" 
	d="
M59.139450,122.233582 
	C59.112366,123.293091 58.837574,124.495407 58.301064,125.843597 
	C58.323483,124.785103 58.607613,123.580742 59.139450,122.233582 
z"/>
<path fill="#CECECE" opacity="1.000000" stroke="none" 
	d="
M98.812851,150.341354 
	C98.083672,151.261490 97.023567,152.187775 95.640671,153.129333 
	C96.372566,152.212219 97.427246,151.279861 98.812851,150.341354 
z"/>
<path fill="#C5C5C5" opacity="1.000000" stroke="none" 
	d="
M115.713036,101.214088 
	C116.239845,102.149490 116.654205,103.415550 116.923615,105.025085 
	C116.385971,104.093964 115.993279,102.819351 115.713036,101.214088 
z"/>
<path fill="#CFCFCF" opacity="1.000000" stroke="none" 
	d="
M103.585075,143.897781 
	C103.203316,145.209747 102.493523,146.591293 101.438644,148.012283 
	C101.814735,146.690262 102.535889,145.328812 103.585075,143.897781 
z"/>
<path fill="#CECECE" opacity="1.000000" stroke="none" 
	d="
M56.106876,137.302017 
	C56.430077,138.209091 56.588303,139.357132 56.517410,140.714844 
	C56.172829,139.797333 56.057365,138.670151 56.106876,137.302017 
z"/>
<path fill="#CECECE" opacity="1.000000" stroke="none" 
	d="
M102.323303,152.979675 
	C102.627289,152.033936 103.227478,151.011887 104.139084,149.941147 
	C103.840164,150.896088 103.229843,151.899719 102.323303,152.979675 
z"/>
<path fill="#CECECE" opacity="1.000000" stroke="none" 
	d="
M54.639687,80.961334 
	C54.187847,81.940361 53.412621,82.956993 52.289574,83.966324 
	C52.733265,82.972328 53.524784,81.985626 54.639687,80.961334 
z"/>
<path fill="#CECECE" opacity="1.000000" stroke="none" 
	d="
M66.729034,77.171570 
	C66.092842,77.495552 65.264793,77.641342 64.264832,77.570335 
	C64.907677,77.233490 65.722420,77.113434 66.729034,77.171570 
z"/>
<path fill="#CECECE" opacity="1.000000" stroke="none" 
	d="
M57.561733,127.861755 
	C57.713940,128.707672 57.619209,129.760849 57.230347,130.965240 
	C57.062412,130.100632 57.188606,129.084839 57.561733,127.861755 
z"/>
<path fill="#C5C5C5" opacity="1.000000" stroke="none" 
	d="
M113.019333,126.597824 
	C112.922180,126.976532 112.493835,127.010223 112.279083,127.016121 
	C112.404617,125.646851 112.744911,124.271690 113.371582,122.681335 
	C113.477470,123.717140 113.296982,124.968132 113.019333,126.597824 
z"/>
<path fill="#C5C5C5" opacity="1.000000" stroke="none" 
	d="
M108.645447,82.028015 
	C108.685226,82.894775 108.424278,83.890213 107.860764,84.995422 
	C107.820366,84.122368 108.082542,83.139526 108.645447,82.028015 
z"/>
<path fill="#CECECE" opacity="1.000000" stroke="none" 
	d="
M69.437447,131.135925 
	C69.327766,130.281937 69.465141,129.219162 69.911469,128.021439 
	C70.041771,128.900024 69.863136,129.913589 69.437447,131.135925 
z"/>
<path fill="#CECECE" opacity="1.000000" stroke="none" 
	d="
M74.293121,114.906647 
	C74.246925,114.100136 74.448006,113.112312 74.944427,112.005096 
	C75.006638,112.832253 74.773521,113.778786 74.293121,114.906647 
z"/>
<path fill="#CECECE" opacity="1.000000" stroke="none" 
	d="
M71.284134,124.054649 
	C71.158295,123.515793 71.255959,122.916763 71.639114,122.168823 
	C71.785622,122.678101 71.646637,123.336281 71.284134,124.054649 
z"/>
<path fill="#C5C5C5" opacity="1.000000" stroke="none" 
	d="
M107.564636,88.169518 
	C108.125175,88.419762 108.589142,88.948280 109.009613,89.761574 
	C108.466759,89.513496 107.967407,88.980644 107.564636,88.169518 
z"/>
<path fill="#CECECE" opacity="1.000000" stroke="none" 
	d="
M54.399765,87.115616 
	C54.540543,86.491249 54.982166,85.790207 55.773178,85.091507 
	C55.648579,85.742210 55.174595,86.390572 54.399765,87.115616 
z"/>
<path fill="#C5C5C5" opacity="1.000000" stroke="none" 
	d="
M108.965759,90.352478 
	C109.615067,90.531349 110.275436,91.031418 110.908188,91.875519 
	C110.245995,91.704254 109.611412,91.188957 108.965759,90.352478 
z"/>
<path fill="#CECECE" opacity="1.000000" stroke="none" 
	d="
M51.657570,83.990730 
	C51.551750,84.622131 51.143677,85.301880 50.408627,86.000687 
	C50.506207,85.359520 50.930763,84.699303 51.657570,83.990730 
z"/>
<path fill="#CECECE" opacity="1.000000" stroke="none" 
	d="
M77.735397,158.068695 
	C77.282387,158.241776 76.622505,158.221420 75.922821,157.954895 
	C76.431519,157.764236 76.980026,157.819748 77.735397,158.068695 
z"/>
<path fill="#CECECE" opacity="1.000000" stroke="none" 
	d="
M72.559219,120.339134 
	C72.413826,119.732643 72.505234,118.931595 72.897217,118.008377 
	C73.063866,118.639000 72.929947,119.391785 72.559219,120.339134 
z"/>
<path fill="#CECECE" opacity="1.000000" stroke="none" 
	d="
M94.849884,153.333221 
	C94.651955,153.907837 94.163467,154.493729 93.364471,155.052490 
	C93.555748,154.465073 94.057541,153.904800 94.849884,153.333221 
z"/>
<path fill="#C5C5C5" opacity="1.000000" stroke="none" 
	d="
M113.817429,77.513519 
	C113.541924,78.088448 112.981369,78.560135 112.130569,78.972351 
	C112.404343,78.412003 112.968361,77.911140 113.817429,77.513519 
z"/>
<path fill="#CECECE" opacity="1.000000" stroke="none" 
	d="
M100.780243,148.190262 
	C100.684059,148.761581 100.309013,149.420639 99.627319,150.111160 
	C99.714249,149.521103 100.107811,148.899551 100.780243,148.190262 
z"/>
<path fill="#CECECE" opacity="1.000000" stroke="none" 
	d="
M56.685707,146.160873 
	C57.228123,146.541687 57.610523,147.184586 57.882446,148.118240 
	C57.356537,147.746994 56.941116,147.084976 56.685707,146.160873 
z"/>
<path fill="#C5C5C5" opacity="1.000000" stroke="none" 
	d="
M120.984489,78.675888 
	C120.380318,78.720131 119.716805,78.472069 118.966400,77.953888 
	C119.561394,77.917046 120.243271,78.150307 120.984489,78.675888 
z"/>
<path fill="#C5C5C5" opacity="1.000000" stroke="none" 
	d="
M110.792984,79.339722 
	C110.687706,79.914474 110.300636,80.497681 109.627579,81.080338 
	C109.731453,80.502594 110.121323,79.925385 110.792984,79.339722 
z"/>
</svg>