<?xml version="1.0" standalone="no"?>
<!DOCTYPE svg PUBLIC "-//W3C//DTD SVG 20010904//EN"
 "http://www.w3.org/TR/2001/REC-SVG-20010904/DTD/svg10.dtd">
<svg version="1.0" xmlns="http://www.w3.org/2000/svg"
 width="55px" height="45px" viewBox="0 0 320.000000 250.000000"
 preserveAspectRatio="xMidYMid meet">

<g transform="translate(0.000000,250.000000) scale(0.100000,-0.100000)"
fill="#000000" stroke="none">
<path d="M843 2428 c-6 -24 -15 -52 -19 -62 -6 -16 -4 -18 9 -13 16 6 17 -14
17 -239 l0 -245 -33 6 c-48 9 -62 -10 -46 -67 16 -52 16 -242 1 -318 -7 -30
-14 -89 -17 -130 -7 -95 -11 -107 -49 -152 -18 -20 -46 -66 -64 -100 -17 -35
-51 -82 -74 -105 -48 -46 -358 -256 -430 -291 -66 -32 -78 -55 -78 -154 0 -80
2 -87 51 -185 60 -119 142 -216 223 -263 29 -16 59 -30 65 -30 31 0 174 93
242 157 109 104 119 107 326 104 133 -1 185 2 225 14 32 9 87 15 140 14 104
-1 140 15 225 103 42 43 57 69 81 138 16 47 42 113 56 147 14 35 26 73 26 86
0 24 0 24 158 31 196 8 374 25 427 40 27 8 47 22 60 44 l20 31 328 1 c317 0
327 -1 318 -19 -10 -17 -7 -17 54 3 l63 20 -52 17 c-29 9 -58 19 -65 24 -10 6
-11 3 -2 -14 l12 -21 -333 0 -334 0 -11 29 c-6 16 -21 36 -34 45 -30 19 -155
46 -217 46 -26 0 -64 3 -85 6 -45 8 -40 18 43 74 114 78 161 145 128 178 -16
16 -33 1 297 262 257 204 280 220 285 199 6 -22 6 -22 19 8 7 18 20 38 28 44
8 7 19 21 24 31 10 19 9 19 -28 0 -21 -11 -51 -23 -68 -27 -21 -6 -25 -9 -12
-12 35 -9 57 11 -341 -305 -208 -164 -226 -176 -257 -171 -49 8 -122 -21 -194
-77 -36 -28 -70 -50 -77 -50 -6 0 -46 -25 -89 -55 -86 -62 -38 -53 -385 -70
-198 -10 -210 -6 -297 96 -105 125 -98 107 -100 253 -1 72 -5 148 -8 170 -10
67 -53 144 -96 173 l-39 26 0 244 c0 237 1 243 19 233 19 -10 19 -9 1 43 -9
28 -19 58 -22 65 -2 7 -9 -6 -15 -30z m10 -572 c51 -18 74 -41 105 -101 24
-46 27 -63 32 -215 4 -91 10 -174 15 -185 5 -11 37 -51 72 -89 35 -38 63 -72
63 -77 0 -5 15 -16 33 -26 29 -16 68 -18 382 -18 288 0 366 -3 440 -17 50 -10
130 -22 179 -28 143 -18 185 -43 186 -112 0 -48 -26 -63 -136 -77 -70 -9 -149
-14 -514 -36 -165 -10 -297 -22 -308 -29 -7 -4 -12 -12 -12 -18 0 -7 5 -6 14
1 8 7 65 16 128 21 62 5 124 13 138 16 l25 8 -20 -30 c-125 -191 -193 -253
-288 -264 l-62 -7 53 -2 c94 -2 149 41 267 209 48 68 61 81 63 63 2 -12 -6
-44 -18 -70 -12 -26 -35 -86 -52 -133 -17 -47 -37 -98 -45 -113 -17 -34 -106
-76 -183 -86 -42 -6 -51 -10 -36 -16 13 -6 38 -2 75 12 31 11 65 23 76 27 30
11 -32 -41 -77 -65 -28 -14 -58 -19 -120 -19 -46 0 -111 -7 -146 -15 -46 -11
-110 -14 -235 -13 -200 3 -204 2 -295 -92 -56 -57 -123 -105 -210 -149 l-43
-22 -64 36 c-71 39 -176 155 -196 215 -7 19 -24 52 -38 73 -21 33 -26 54 -29
128 -5 109 2 123 94 174 124 69 394 256 428 297 19 22 46 63 59 91 13 29 41
72 61 96 41 49 44 56 55 171 35 334 34 332 19 410 -19 94 -12 103 65 76z
m1324 -480 c27 -24 27 -26 13 -53 -9 -15 -61 -62 -115 -103 l-100 -76 -125 11
-125 10 55 41 c30 23 78 53 106 67 27 14 56 32 63 41 30 36 131 85 178 86 12
0 35 -11 50 -24z"/>
<path d="M931 2128 c-1 -21 3 -38 7 -38 10 0 45 60 39 67 -3 2 -11 -6 -18 -19
l-13 -23 -7 25 c-6 22 -7 20 -8 -12z"/>
<path d="M1029 2143 c7 -14 8 -24 1 -28 -5 -3 -10 -11 -10 -17 0 -7 5 -6 14 1
10 8 16 9 21 1 3 -5 11 -10 17 -10 7 0 6 5 -2 15 -7 8 -9 23 -4 37 6 19 5 21
-8 11 -11 -10 -17 -10 -27 0 -11 10 -11 8 -2 -10z"/>
<path d="M1121 2123 c-1 -34 12 -44 23 -17 8 22 8 26 -3 19 -5 -3 -12 3 -14
12 -3 10 -5 3 -6 -14z"/>
<path d="M1154 2134 c3 -9 6 -22 6 -30 0 -22 16 -16 28 11 16 35 14 44 -3 21
-13 -17 -15 -18 -15 -3 0 9 -5 17 -11 17 -6 0 -8 -7 -5 -16z"/>
<path d="M2562 1585 c-10 -17 -13 -18 -22 -5 -8 12 -10 9 -10 -12 0 -33 15
-44 29 -21 10 17 10 17 11 1 0 -27 13 -22 32 12 9 17 13 30 9 30 -5 0 -12 -8
-16 -17 -7 -16 -9 -14 -14 7 -7 24 -7 24 -19 5z"/>
<path d="M2696 923 c7 -31 12 -38 18 -32 7 7 -6 59 -15 59 -5 0 -6 -12 -3 -27z"/>
<path d="M2726 934 c-10 -25 1 -29 14 -5 6 12 7 21 1 21 -5 0 -12 -7 -15 -16z"/>
<path d="M1410 135 c-26 -32 13 -81 48 -59 22 14 27 41 12 59 -16 19 -44 19
-60 0z m55 -25 c0 -18 -6 -26 -23 -28 -24 -4 -38 18 -28 44 3 9 15 14 28 12
17 -2 23 -10 23 -28z"/>
<path d="M1425 120 c-8 -13 3 -30 18 -30 7 0 6 4 -3 10 -13 9 -13 11 0 20 9 6
10 10 3 10 -6 0 -15 -4 -18 -10z"/>
<path d="M1526 131 c-4 -5 3 -7 14 -4 26 7 25 -5 -2 -34 l-21 -23 29 1 c18 1
22 3 11 6 -17 4 -17 6 -2 23 9 10 14 24 10 29 -8 13 -32 14 -39 2z"/>
<path d="M1584 126 c-10 -26 0 -51 21 -51 16 0 20 7 20 30 0 33 -30 49 -41 21z
m36 -21 c0 -16 -6 -25 -15 -25 -9 0 -15 9 -15 25 0 16 6 25 15 25 9 0 15 -9
15 -25z"/>
<path d="M1644 126 c-10 -26 0 -51 21 -51 16 0 20 7 20 30 0 33 -30 49 -41 21z
m36 -21 c0 -16 -6 -25 -15 -25 -9 0 -15 9 -15 25 0 16 6 25 15 25 9 0 15 -9
15 -25z"/>
<path d="M1717 123 c-21 -24 -22 -33 -3 -33 8 0 16 -5 18 -12 7 -21 15 15 9
40 -6 23 -6 24 -24 5z m13 -13 c0 -5 -5 -10 -11 -10 -5 0 -7 5 -4 10 3 6 8 10
11 10 2 0 4 -4 4 -10z"/>
<path d="M1790 105 c0 -30 3 -35 23 -34 16 1 18 2 5 6 -21 5 -23 19 -5 26 10
4 10 6 0 6 -19 1 -16 19 5 24 13 4 11 5 -5 6 -20 1 -23 -4 -23 -34z"/>
<path d="M2078 105 c5 -45 12 -45 12 0 0 19 -4 35 -8 35 -4 0 -6 -16 -4 -35z"/>
<path d="M2306 120 c-20 -21 -15 -50 9 -50 11 0 15 10 15 35 0 40 1 40 -24 15z
m14 -25 c0 -8 -4 -15 -10 -15 -5 0 -10 7 -10 15 0 8 5 15 10 15 6 0 10 -7 10
-15z"/>
<path d="M2470 105 c0 -32 3 -36 23 -33 17 2 22 10 22 33 0 23 -5 31 -22 33
-20 3 -23 -1 -23 -33z m40 15 c0 -5 -7 -10 -15 -10 -8 0 -15 5 -15 10 0 6 7
10 15 10 8 0 15 -4 15 -10z m0 -30 c0 -5 -7 -10 -15 -10 -8 0 -15 5 -15 10 0
6 7 10 15 10 8 0 15 -4 15 -10z"/>
<path d="M2619 129 c-2 -22 2 -43 10 -52 4 -4 6 7 5 24 -2 32 -13 52 -15 28z"/>
<path d="M3003 105 c0 -22 2 -30 4 -17 2 12 2 30 0 40 -3 9 -5 -1 -4 -23z"/>
<path d="M1851 93 c1 -23 2 -24 6 -5 2 12 8 22 13 22 5 0 11 -10 13 -22 5 -20
5 -20 4 2 -1 15 -9 26 -19 28 -14 3 -18 -3 -17 -25z"/>
<path d="M1913 104 c-8 -22 13 -42 30 -25 10 10 9 11 -5 6 -13 -5 -18 -2 -18
10 0 11 5 15 16 11 8 -3 12 -2 9 4 -9 15 -25 12 -32 -6z"/>
<path d="M1960 117 c0 -5 5 -18 11 -29 9 -16 8 -23 -2 -29 -10 -6 -10 -9 -2
-9 13 0 48 58 40 67 -3 2 -8 -6 -12 -18 l-7 -22 -14 24 c-7 13 -13 20 -14 16z"/>
<path d="M2023 104 c-8 -22 13 -42 30 -25 10 10 9 11 -5 6 -13 -5 -18 -2 -18
10 0 11 5 15 16 11 8 -3 12 -2 9 4 -9 15 -25 12 -32 -6z"/>
<path d="M2103 104 c-8 -21 13 -42 28 -27 13 13 5 43 -11 43 -6 0 -13 -7 -17
-16z m27 -9 c0 -8 -4 -15 -10 -15 -5 0 -10 7 -10 15 0 8 5 15 10 15 6 0 10 -7
10 -15z"/>
<path d="M2160 85 l0 -36 21 20 c23 21 20 51 -6 51 -11 0 -15 -10 -15 -35z
m30 10 c0 -8 -4 -15 -10 -15 -5 0 -10 7 -10 15 0 8 5 15 10 15 6 0 10 -7 10
-15z"/>
<path d="M2228 111 c11 -7 10 -10 -3 -15 -23 -9 -10 -23 21 -23 18 0 22 2 13
8 -11 7 -10 9 4 9 30 0 13 24 -19 27 -18 1 -24 -1 -16 -6z"/>
<path d="M2352 95 c0 -16 2 -22 5 -12 2 9 2 23 0 30 -3 6 -5 -1 -5 -18z"/>
<path d="M2388 112 c11 -7 11 -10 -3 -16 -19 -7 -11 -26 11 -26 20 0 15 42 -6
47 -12 4 -12 3 -2 -5z"/>
<path d="M2541 90 c0 -15 3 -19 6 -10 3 8 12 20 20 27 13 10 12 12 -6 10 -16
-1 -21 -8 -20 -27z"/>
<path d="M2592 95 c0 -16 2 -22 5 -12 2 9 2 23 0 30 -3 6 -5 -1 -5 -18z"/>
<path d="M2668 112 c11 -7 11 -10 -3 -16 -19 -7 -11 -26 11 -26 20 0 15 42 -6
47 -12 4 -12 3 -2 -5z"/>
<path d="M2701 93 c1 -23 2 -24 6 -5 2 12 8 22 13 22 5 0 11 -10 13 -22 5 -20
5 -20 4 2 -1 15 -9 26 -19 28 -14 3 -18 -3 -17 -25z"/>
<path d="M2761 93 c1 -23 2 -24 6 -5 2 12 8 22 13 22 5 0 11 -10 13 -22 5 -20
5 -20 4 2 -1 15 -9 26 -19 28 -14 3 -18 -3 -17 -25z"/>
<path d="M2822 95 c0 -16 2 -22 5 -12 2 9 2 23 0 30 -3 6 -5 -1 -5 -18z"/>
<path d="M2843 104 c-8 -22 13 -42 30 -25 10 10 9 11 -5 6 -13 -5 -18 -2 -18
10 0 11 5 15 16 11 8 -3 12 -2 9 4 -9 15 -25 12 -32 -6z"/>
<path d="M2908 112 c11 -7 11 -10 -3 -16 -19 -7 -11 -26 11 -26 20 0 15 42 -6
47 -12 4 -12 3 -2 -5z"/>
<path d="M3021 93 c1 -23 2 -24 6 -5 2 12 8 22 13 22 5 0 11 -10 13 -22 5 -20
5 -20 4 2 -1 15 -9 26 -19 28 -14 3 -18 -3 -17 -25z"/>
<path d="M3083 104 c-8 -22 13 -42 30 -25 10 10 9 11 -5 6 -13 -5 -18 -2 -18
10 0 11 5 15 16 11 8 -3 12 -2 9 4 -9 15 -25 12 -32 -6z"/>
<path d="M2946 63 c-6 -14 -5 -15 5 -6 7 7 10 15 7 18 -3 3 -9 -2 -12 -12z"/>
</g>
</svg>
